<svg width="48" height="48" viewBox="0 0 48 48" fill="none" xmlns="http://www.w3.org/2000/svg">
<path d="M21.5254 18.8182H19.7456L22.9721 23.9091L19.7257 29H21.5154L23.9615 25.0724H24.041L26.487 29H28.2768L25.085 23.9091L28.2569 18.8182H26.4771L24.041 22.8004H23.9615L21.5254 18.8182Z" fill="#A2A9B0"/>
<path d="M24 46C11.8497 46 2 36.1503 2 24H-2C-2 38.3594 9.6406 50 24 50V46ZM46 24C46 36.1503 36.1503 46 24 46V50C38.3594 50 50 38.3594 50 24H46ZM24 2C36.1503 2 46 11.8497 46 24H50C50 9.6406 38.3594 -2 24 -2V2ZM24 -2C9.6406 -2 -2 9.6406 -2 24H2C2 11.8497 11.8497 2 24 2V-2Z" fill="#C1C7CD"/>
</svg>
